<?xml version="1.0" encoding="utf-8"?>
<!-- Generator: Adobe Illustrator 16.0.0, SVG Export Plug-In . SVG Version: 6.00 Build 0)  -->
<!DOCTYPE svg PUBLIC "-//W3C//DTD SVG 1.1//EN" "http://www.w3.org/Graphics/SVG/1.1/DTD/svg11.dtd">
<svg version="1.1" id="Layer_1" xmlns="http://www.w3.org/2000/svg" xmlns:xlink="http://www.w3.org/1999/xlink" x="0px" y="0px"
	 width="70px" height="70px" viewBox="0 0 70 70" enable-background="new 0 0 70 70" xml:space="preserve">
<path fill-rule="evenodd" clip-rule="evenodd" fill="#FFFFFF" d="M66.022,35c0,17.146-13.877,31.022-31.022,31.022
	C17.855,66.022,3.978,52.146,3.978,35S17.855,3.978,35,3.978C52.146,3.978,66.022,17.854,66.022,35z"/>
<g>
	<path fill-rule="evenodd" clip-rule="evenodd" fill="#3F88C8" d="M27.333,20.309c0.184,0.116,0.376,0.225,0.556,0.346
		c6.589,4.542,13.176,9.082,19.756,13.622c0.113,0.078,0.227,0.151,0.316,0.248c0.266,0.271,0.266,0.679,0,0.953
		c-0.086,0.087-0.189,0.158-0.289,0.229c-6.607,4.556-13.219,9.112-19.826,13.676c-0.304,0.206-0.604,0.434-0.995,0.227
		c-0.386-0.209-0.381-0.582-0.381-0.952c0.004-9.144,0.004-18.283-0.002-27.425c0-0.429,0.13-0.735,0.521-0.924
		C27.104,20.309,27.217,20.309,27.333,20.309z"/>
</g>
</svg>
